<svg preserveAspectRatio="none" overflow="visible" style="display: block;" width="20" height="20" viewBox="0 0 20 20" fill="none" xmlns="http://www.w3.org/2000/svg">
<g id="leadingIcon">
<g id="Vector">
<path d="M10 2.91667C7.88652 2.91667 5.9895 3.84144 4.69058 5.31116L6.62287 5.20946C7.08247 5.18527 7.47466 5.53824 7.49885 5.99784C7.52304 6.45744 7.17007 6.84963 6.71046 6.87382L4.20319 7.00579C3.97159 7.018 3.74861 7.02977 3.56047 7.02371C3.35598 7.01712 3.1107 6.98899 2.86393 6.86972C2.52543 6.70612 2.25218 6.43288 2.08858 6.09438C1.96932 5.84761 1.94119 5.60233 1.9346 5.39784C1.92854 5.2097 1.9403 4.98672 1.95252 4.75512L2.08448 2.24784C2.10867 1.78824 2.50086 1.43527 2.96046 1.45946C3.42007 1.48365 3.77304 1.87584 3.74885 2.33544L3.66301 3.96635C5.25592 2.29398 7.50625 1.25 10 1.25C14.8325 1.25 18.75 5.16751 18.75 10C18.75 14.8325 14.8325 18.75 10 18.75C5.96324 18.75 2.56691 16.0171 1.5562 12.3021C1.43539 11.858 1.69745 11.4 2.14155 11.2792C2.58564 11.1584 3.0436 11.4205 3.16442 11.8646C3.98277 14.8726 6.73428 17.0833 10 17.0833C13.912 17.0833 17.0833 13.912 17.0833 10C17.0833 6.08798 13.912 2.91667 10 2.91667Z" fill="white"/>
<path d="M10.625 6.25C10.625 5.78976 10.2519 5.41667 9.79167 5.41667C9.33143 5.41667 8.95833 5.78976 8.95833 6.25V9.98066C8.95833 9.9895 8.95823 9.99979 8.95811 10.0114C8.95695 10.1225 8.95457 10.3532 9.03306 10.5699C9.0991 10.7522 9.20667 10.9167 9.34725 11.0503C9.51431 11.209 9.72658 11.2993 9.82887 11.3428C9.83948 11.3473 9.84904 11.3514 9.8571 11.3549L12.791 12.6385C13.2126 12.8229 13.704 12.6307 13.8885 12.209C14.0729 11.7874 13.8807 11.296 13.459 11.1115L10.625 9.87165V6.25Z" fill="white"/>
</g>
</g>
</svg>
